<svg width="140" height="47" viewBox="0 0 140 47" fill="none" xmlns="http://www.w3.org/2000/svg">
<path d="M29.1036 23.8535C29.1163 22.8727 29.3768 21.9112 29.8609 21.0582C30.345 20.2052 31.0371 19.4885 31.8726 18.9748C31.3418 18.2167 30.6416 17.5929 29.8275 17.1528C29.0134 16.7127 28.108 16.4685 27.183 16.4395C25.2099 16.2324 23.297 17.6202 22.2916 17.6202C21.2667 17.6202 19.7186 16.4601 18.0516 16.4944C16.9733 16.5292 15.9225 16.8428 15.0014 17.4045C14.0804 17.9662 13.3205 18.7569 12.7959 19.6996C10.5235 23.634 12.2185 29.4163 14.3953 32.5965C15.4844 34.1538 16.7573 35.8933 18.4228 35.8317C20.0526 35.7641 20.6613 34.7924 22.6286 34.7924C24.5776 34.7924 25.1487 35.8317 26.848 35.7924C28.5969 35.764 29.6987 34.2282 30.7496 32.6562C31.5321 31.5466 32.1343 30.3202 32.5337 29.0225C31.5177 28.5928 30.6507 27.8735 30.0407 26.9543C29.4307 26.0351 29.1048 24.9566 29.1036 23.8535V23.8535Z" fill="black"/>
<path d="M25.8948 14.3481C26.8483 13.2034 27.3181 11.7321 27.2043 10.2466C25.7475 10.3996 24.4019 11.0958 23.4354 12.1966C22.9629 12.7344 22.601 13.36 22.3704 14.0377C22.1398 14.7154 22.0451 15.4319 22.0916 16.1463C22.8202 16.1538 23.5411 15.9958 24.1999 15.6843C24.8587 15.3729 25.4382 14.916 25.8948 14.3481Z" fill="black"/>
<path d="M49.7023 31.8898H44.1406L42.805 35.8336H40.4492L45.7172 21.2424H48.1647L53.4327 35.8336H51.0368L49.7023 31.8898ZM44.7166 30.0699H49.1252L46.9519 23.6693H46.8911L44.7166 30.0699Z" fill="black"/>
<path d="M64.8099 30.5144C64.8099 33.8203 63.0405 35.9442 60.3703 35.9442C59.694 35.9796 59.0213 35.8238 58.4293 35.4946C57.8374 35.1655 57.3501 34.6763 57.0232 34.083H56.9727V39.3522H54.7891V25.1948H56.9027V26.9642H56.9429C57.2848 26.3738 57.7803 25.8871 58.3768 25.556C58.9732 25.2248 59.6483 25.0615 60.3302 25.0835C63.0301 25.0835 64.8099 27.2178 64.8099 30.5144ZM62.5654 30.5144C62.5654 28.3607 61.4524 26.9447 59.7542 26.9447C58.0857 26.9447 56.9635 28.3905 56.9635 30.5144C56.9635 32.6579 58.0857 34.0934 59.7542 34.0934C61.4524 34.0934 62.5654 32.6877 62.5654 30.5144Z" fill="black"/>
<path d="M76.5169 30.5144C76.5169 33.8203 74.7475 35.9442 72.0774 35.9442C71.401 35.9796 70.7283 35.8238 70.1363 35.4946C69.5444 35.1655 69.0571 34.6763 68.7302 34.083H68.6797V39.3522H66.4961V25.1948H68.6097V26.9642H68.6499C68.9917 26.3738 69.4873 25.8871 70.0837 25.556C70.6802 25.2248 71.3553 25.0615 72.0372 25.0835C74.7372 25.0835 76.5169 27.2178 76.5169 30.5144ZM74.2725 30.5144C74.2725 28.3607 73.1594 26.9447 71.4612 26.9447C69.7928 26.9447 68.6706 28.3905 68.6706 30.5144C68.6706 32.6579 69.7928 34.0934 71.4612 34.0934C73.1594 34.0934 74.2725 32.6877 74.2725 30.5144H74.2725Z" fill="black"/>
<path d="M84.2548 31.7675C84.4166 33.2145 85.8223 34.1645 87.7431 34.1645C89.5836 34.1645 90.9078 33.2144 90.9078 31.9098C90.9078 30.7772 90.1092 30.0991 88.2182 29.6343L86.3271 29.1788C83.6478 28.5316 82.404 27.2786 82.404 25.2453C82.404 22.7278 84.5979 20.9985 87.7133 20.9985C90.7965 20.9985 92.9101 22.7278 92.9813 25.2453H90.777C90.645 23.7892 89.4413 22.9102 87.6823 22.9102C85.9232 22.9102 84.7195 23.7995 84.7195 25.0938C84.7195 26.1254 85.4883 26.7324 87.369 27.1971L88.9766 27.5918C91.9703 28.2998 93.2142 29.5024 93.2142 31.6366C93.2142 34.3664 91.0397 36.0761 87.5813 36.0761C84.3454 36.0761 82.1607 34.4066 82.0195 31.7674L84.2548 31.7675Z" fill="black"/>
<path d="M97.9282 22.6775V25.195H99.9512V26.9242H97.9282V32.7889C97.9282 33.7 98.3333 34.1246 99.2225 34.1246C99.4627 34.1204 99.7025 34.1035 99.9409 34.074V35.7929C99.541 35.8676 99.1347 35.9015 98.728 35.8939C96.5742 35.8939 95.7343 35.0849 95.7343 33.0218V26.9242H94.1875V25.195H95.7342V22.6775H97.9282Z" fill="black"/>
<path d="M101.123 30.5144C101.123 27.1673 103.094 25.064 106.168 25.064C109.253 25.064 111.215 27.1672 111.215 30.5144C111.215 33.8707 109.263 35.9648 106.168 35.9648C103.075 35.9648 101.123 33.8707 101.123 30.5144ZM108.99 30.5144C108.99 28.2183 107.938 26.8632 106.168 26.8632C104.399 26.8632 103.348 28.2287 103.348 30.5144C103.348 32.8196 104.399 34.1645 106.168 34.1645C107.938 34.1645 108.99 32.8196 108.99 30.5144H108.99Z" fill="black"/>
<path d="M113.016 25.195H115.098V27.0056H115.149C115.29 26.4401 115.621 25.9404 116.087 25.5903C116.553 25.2403 117.125 25.0614 117.708 25.0836C117.959 25.0828 118.21 25.1101 118.456 25.1651V27.2076C118.138 27.1105 117.807 27.0659 117.475 27.0756C117.157 27.0628 116.841 27.1187 116.548 27.2396C116.254 27.3605 115.99 27.5435 115.774 27.776C115.558 28.0085 115.394 28.2851 115.295 28.5866C115.196 28.8882 115.163 29.2077 115.199 29.5232V35.8331H113.016L113.016 25.195Z" fill="black"/>
<path d="M128.524 32.7084C128.23 34.6395 126.35 35.9648 123.943 35.9648C120.849 35.9648 118.928 33.8914 118.928 30.5649C118.928 27.2281 120.859 25.064 123.851 25.064C126.795 25.064 128.646 27.0858 128.646 30.3113V31.0594H121.132V31.1914C121.097 31.5829 121.146 31.9773 121.276 32.3484C121.405 32.7195 121.612 33.0589 121.883 33.3439C122.154 33.6289 122.482 33.853 122.846 34.0014C123.21 34.1498 123.601 34.2191 123.994 34.2046C124.51 34.253 125.028 34.1335 125.47 33.8639C125.913 33.5943 126.257 33.189 126.45 32.7083L128.524 32.7084ZM121.142 29.5333H126.461C126.48 29.1813 126.427 28.829 126.304 28.4986C126.181 28.1682 125.991 27.8667 125.746 27.6132C125.501 27.3597 125.206 27.1596 124.88 27.0253C124.554 26.8911 124.204 26.8258 123.851 26.8333C123.496 26.8312 123.143 26.8995 122.814 27.0344C122.485 27.1692 122.186 27.3678 121.934 27.6189C121.682 27.8699 121.483 28.1683 121.347 28.4969C121.211 28.8255 121.141 29.1777 121.142 29.5333V29.5333Z" fill="black"/>
<path d="M43.166 13.2229H44.1035C44.2649 13.243 44.4287 13.2295 44.5846 13.1831C44.7405 13.1368 44.885 13.0586 45.0092 12.9536C45.1334 12.8486 45.2345 12.7191 45.3061 12.573C45.3778 12.427 45.4184 12.2678 45.4254 12.1053C45.4254 11.4587 44.9389 11.041 44.1138 11.041C43.9485 11.0179 43.7802 11.0282 43.6189 11.0712C43.4576 11.1142 43.3065 11.1891 43.1747 11.2915C43.0428 11.3938 42.9327 11.5216 42.851 11.6672C42.7694 11.8128 42.7177 11.9733 42.699 12.1392H41.6697C41.6874 11.838 41.767 11.5437 41.9033 11.2746C42.0397 11.0055 42.23 10.7674 42.4624 10.5751C42.6948 10.3827 42.9643 10.2403 43.2541 10.1566C43.544 10.0729 43.8479 10.0498 44.1471 10.0886C45.5275 10.0886 46.4994 10.8614 46.4994 11.9739C46.5027 12.3466 46.378 12.7091 46.1462 13.001C45.9144 13.2928 45.5895 13.4963 45.2257 13.5775V13.6601C45.657 13.6792 46.0631 13.8683 46.3553 14.186C46.6475 14.5037 46.802 14.9242 46.7851 15.3555C46.7532 15.6656 46.6597 15.9661 46.5101 16.2396C46.3606 16.5131 46.1579 16.7539 45.914 16.9481C45.6701 17.1422 45.39 17.2857 45.0899 17.3701C44.7898 17.4546 44.476 17.4783 44.1666 17.4399C43.8566 17.4821 43.5413 17.4615 43.2395 17.3793C42.9376 17.2971 42.6554 17.155 42.4097 16.9614C42.1639 16.7678 41.9597 16.5267 41.8091 16.2525C41.6585 15.9782 41.5647 15.6765 41.5332 15.3652H42.5785C42.6417 16.0359 43.2578 16.4686 44.1666 16.4686C45.0754 16.4686 45.6687 15.9826 45.6687 15.2976C45.6687 14.6028 45.1098 14.1748 44.1333 14.1748H43.166V13.2229Z" fill="black"/>
<path d="M47.9746 15.774C47.9746 14.8216 48.6849 14.2725 49.9425 14.1945L51.3757 14.1119V13.6552C51.3757 13.0964 51.0073 12.7808 50.2925 12.7808C49.7096 12.7808 49.3068 12.9948 49.1898 13.3689H48.1789C48.2856 12.4601 49.1416 11.8772 50.3418 11.8772C51.6683 11.8772 52.4164 12.5375 52.4164 13.6552V17.2703H51.4101V16.5267H51.3275C51.1598 16.7934 50.9243 17.0109 50.6451 17.1568C50.3659 17.3028 50.053 17.372 49.7383 17.3574C49.5161 17.3805 49.2917 17.3568 49.0793 17.2879C48.8669 17.2189 48.6713 17.1062 48.5051 16.957C48.339 16.8078 48.2059 16.6255 48.1145 16.4217C48.0231 16.2179 47.9755 15.9973 47.9746 15.774V15.774ZM51.3757 15.3219V14.8795L50.0836 14.9621C49.355 15.0109 49.0245 15.2588 49.0245 15.7252C49.0245 16.2014 49.4376 16.4785 50.0056 16.4785C50.172 16.4954 50.3402 16.4786 50.5 16.4291C50.6598 16.3796 50.808 16.2986 50.9359 16.1906C51.0637 16.0827 51.1685 15.9502 51.2441 15.8009C51.3196 15.6517 51.3644 15.4888 51.3757 15.3219V15.3219Z" fill="black"/>
<path d="M55.1887 12.8582V17.2702H54.1445V11.9792H57.6283V12.8581L55.1887 12.8582Z" fill="black"/>
<path d="M63.9566 14.6223C63.9566 16.3034 63.1063 17.3573 61.7707 17.3573C61.4428 17.3797 61.1154 17.308 60.8269 17.1505C60.5384 16.9931 60.301 16.7565 60.1424 16.4686H60.0598V19.0292H59.0156V11.9792H60.0208V12.8536H60.0988C60.2602 12.5556 60.5008 12.3081 60.794 12.1383C61.0872 11.9685 61.4216 11.8831 61.7604 11.8914C63.1063 11.8914 63.9566 12.9407 63.9566 14.6223ZM62.8826 14.6223C62.8826 13.5047 62.3536 12.8294 61.4689 12.8294C60.59 12.8294 60.0403 13.5191 60.0403 14.6269C60.0403 15.7297 60.59 16.4199 61.4643 16.4199C62.3536 16.4198 62.8826 15.7446 62.8826 14.6223Z" fill="black"/>
<path d="M65.344 19.1652V18.2662C65.457 18.2805 65.5709 18.2871 65.6848 18.2857C65.9073 18.3022 66.128 18.2359 66.3046 18.0996C66.4812 17.9634 66.6013 17.7667 66.6418 17.5473L66.7198 17.2897L64.8047 11.9792H65.9418L67.2683 16.1818H67.3509L68.6728 11.9792H69.7801L67.8077 17.4888C67.3556 18.7762 66.8553 19.1893 65.7766 19.1893C65.6894 19.1893 65.4416 19.1796 65.344 19.1652Z" fill="black"/>
<path d="M70.5957 15.7686H71.6353C71.7374 16.235 72.1746 16.4783 72.7862 16.4783C73.4816 16.4783 73.9084 16.1719 73.9084 15.6957C73.9084 15.1857 73.5252 14.9424 72.7862 14.9424H71.9945V14.1312H72.7724C73.4035 14.1312 73.7248 13.8885 73.7248 13.4461C73.7248 13.0577 73.4139 12.7611 72.7724 12.7611C72.1884 12.7611 71.7615 13.009 71.6938 13.4266H70.6875C70.7627 12.9467 71.0233 12.5155 71.4132 12.2257C71.8031 11.9359 72.2912 11.8107 72.7724 11.877C74.0301 11.877 74.7495 12.4456 74.7495 13.3394C74.7554 13.5883 74.6756 13.8317 74.5236 14.0289C74.3715 14.2261 74.1564 14.3651 73.9142 14.4226V14.5053C74.2026 14.5425 74.4673 14.6842 74.6581 14.9037C74.8488 15.1231 74.9524 15.405 74.9492 15.6957C74.9492 16.7015 74.0932 17.367 72.7862 17.367C71.6307 17.367 70.6921 16.8374 70.5957 15.7686Z" fill="black"/>
<path d="M76.4531 17.2702V11.9792H77.4881V15.6184H77.5708L80.0091 11.9793H81.0441V17.2702H80.0091V13.6115H79.9311L77.4881 17.2702L76.4531 17.2702Z" fill="black"/>
<path d="M86.7468 12.8581H85.0806V17.2701H84.0353V12.8581H82.3691V11.9792H86.7468V12.8581Z" fill="black"/>
<path d="M92.3718 15.8415C92.2295 16.3251 91.9218 16.7432 91.5026 17.023C91.0833 17.3028 90.5791 17.4264 90.078 17.3722C89.7294 17.3814 89.383 17.3147 89.0628 17.1766C88.7426 17.0385 88.4563 16.8324 88.2238 16.5725C87.9912 16.3127 87.818 16.0054 87.7162 15.6719C87.6143 15.3384 87.5862 14.9867 87.6339 14.6413C87.5875 14.2948 87.616 13.9424 87.7177 13.6079C87.8193 13.2734 87.9916 12.9646 88.2229 12.7025C88.4542 12.4404 88.7392 12.2311 89.0584 12.0886C89.3777 11.9462 89.7238 11.8741 90.0734 11.877C91.5456 11.877 92.4349 12.8828 92.4349 14.5443V14.9087H88.6987V14.9672C88.6822 15.1614 88.7065 15.3569 88.77 15.5412C88.8335 15.7254 88.9349 15.8944 89.0676 16.0371C89.2003 16.1799 89.3614 16.2933 89.5406 16.3701C89.7197 16.4468 89.9129 16.4853 90.1078 16.4829C90.3574 16.5128 90.6103 16.4677 90.8342 16.3535C91.0581 16.2393 91.2431 16.0611 91.3654 15.8415L92.3718 15.8415ZM88.6987 14.1364H91.37C91.3832 13.9589 91.3591 13.7806 91.2993 13.613C91.2395 13.4454 91.1454 13.2921 91.0228 13.163C90.9003 13.034 90.7521 12.9319 90.5878 12.8635C90.4235 12.7951 90.2467 12.7618 90.0688 12.7658C89.8881 12.7633 89.7088 12.7971 89.5415 12.8651C89.3741 12.9331 89.2221 13.034 89.0943 13.1618C88.9666 13.2896 88.8658 13.4416 88.7979 13.609C88.7299 13.7764 88.6962 13.9558 88.6987 14.1364H88.6987Z" fill="black"/>
<path d="M96.793 11.9792H99.1785C100.214 11.9792 100.821 12.5036 100.821 13.3246C100.822 13.5851 100.734 13.8383 100.572 14.0417C100.409 14.2452 100.181 14.3866 99.9267 14.4422V14.5249C100.236 14.5444 100.525 14.6818 100.736 14.9088C100.946 15.1358 101.062 15.435 101.058 15.7446C101.058 16.6677 100.364 17.2702 99.2026 17.2702H96.793V11.9792ZM97.828 12.7808V14.1508H98.863C99.4941 14.1508 99.7959 13.9081 99.7959 13.4606C99.7959 13.0481 99.5331 12.7807 98.9789 12.7807L97.828 12.7808ZM97.828 14.9185V16.4687H99.0661C99.6835 16.4687 100.014 16.1962 100.014 15.6959C100.014 15.1663 99.6399 14.9185 98.9353 14.9185L97.828 14.9185Z" fill="black"/>
<rect x="0.5875" y="0.5875" width="138.65" height="45.825" rx="6.4625" stroke="black" stroke-width="1.175"/>
</svg>
