<svg width="25" height="25" viewBox="0 0 25 25" fill="none" xmlns="http://www.w3.org/2000/svg">
<circle cx="12.5" cy="12.5" r="12.5" fill="#E6E6E6"/>
<path d="M13 6.5C13 6.22386 12.7761 6 12.5 6C12.2239 6 12 6.22386 12 6.5L13 6.5ZM12.1464 15.8536C12.3417 16.0488 12.6583 16.0488 12.8536 15.8536L16.0355 12.6716C16.2308 12.4763 16.2308 12.1597 16.0355 11.9645C15.8403 11.7692 15.5237 11.7692 15.3284 11.9645L12.5 14.7929L9.67157 11.9645C9.47631 11.7692 9.15973 11.7692 8.96447 11.9645C8.7692 12.1597 8.7692 12.4763 8.96447 12.6716L12.1464 15.8536ZM12 6.5L12 15.5L13 15.5L13 6.5L12 6.5Z" fill="black"/>
<path d="M8 18.5H17" stroke="black" stroke-linecap="round"/>
</svg>
