<svg width="159" height="47" viewBox="0 0 159 47" fill="none" xmlns="http://www.w3.org/2000/svg">
<mask id="path-2-inside-1" fill="white">
<path d="M152.75 0.94C154.059 0.94 155.314 1.45994 156.24 2.38543C157.165 3.31092 157.685 4.56616 157.685 5.875V41.125C157.685 42.4338 157.165 43.6891 156.24 44.6146C155.314 45.5401 154.059 46.06 152.75 46.06H5.875C4.56616 46.06 3.31092 45.5401 2.38543 44.6146C1.45994 43.6891 0.94 42.4338 0.94 41.125V5.875C0.94 4.56616 1.45994 3.31092 2.38543 2.38543C3.31092 1.45994 4.56616 0.94 5.875 0.94H152.75ZM152.75 0H5.875C4.31685 0 2.82252 0.618971 1.72075 1.72075C0.618971 2.82252 0 4.31685 0 5.875V41.125C0 42.6831 0.618971 44.1775 1.72075 45.2793C2.82252 46.381 4.31685 47 5.875 47H152.75C154.308 47 155.802 46.381 156.904 45.2793C158.006 44.1775 158.625 42.6831 158.625 41.125V5.875C158.625 4.31685 158.006 2.82252 156.904 1.72075C155.802 0.618971 154.308 0 152.75 0Z"/>
</mask>
<path d="M0.94 41.125H-0.235H0.94ZM152.75 0V-1.175V0ZM5.875 0L5.875 -1.175L5.875 0ZM0 5.875H-1.175H0ZM0 41.125H-1.175H0ZM158.625 41.125H159.8H158.625ZM152.75 2.115C153.747 2.115 154.704 2.51114 155.409 3.21628L157.07 1.55458C155.925 0.40873 154.37 -0.235 152.75 -0.235V2.115ZM155.409 3.21628C156.114 3.92141 156.51 4.87778 156.51 5.875H158.86C158.86 4.25453 158.216 2.70043 157.07 1.55458L155.409 3.21628ZM156.51 5.875V41.125H158.86V5.875H156.51ZM156.51 41.125C156.51 42.1222 156.114 43.0786 155.409 43.7837L157.07 45.4454C158.216 44.2996 158.86 42.7455 158.86 41.125H156.51ZM155.409 43.7837C154.704 44.4889 153.747 44.885 152.75 44.885V47.235C154.37 47.235 155.925 46.5913 157.07 45.4454L155.409 43.7837ZM152.75 44.885H5.875V47.235H152.75V44.885ZM5.875 44.885C4.87779 44.885 3.92142 44.4889 3.21628 43.7837L1.55458 45.4454C2.70042 46.5913 4.25453 47.235 5.875 47.235V44.885ZM3.21628 43.7837C2.51114 43.0786 2.115 42.1222 2.115 41.125H-0.235C-0.235 42.7455 0.40873 44.2996 1.55458 45.4454L3.21628 43.7837ZM2.115 41.125V5.875H-0.235V41.125H2.115ZM2.115 5.875C2.115 4.87779 2.51114 3.92141 3.21628 3.21628L1.55458 1.55458C0.40873 2.70042 -0.235 4.25453 -0.235 5.875H2.115ZM3.21628 3.21628C3.92141 2.51114 4.87779 2.115 5.875 2.115V-0.235C4.25453 -0.235 2.70042 0.40873 1.55458 1.55458L3.21628 3.21628ZM5.875 2.115H152.75V-0.235H5.875V2.115ZM152.75 -1.175H5.875V1.175H152.75V-1.175ZM5.875 -1.175C4.00522 -1.175 2.21203 -0.432234 0.889897 0.889897L2.5516 2.5516C3.43302 1.67018 4.62848 1.175 5.875 1.175L5.875 -1.175ZM0.889897 0.889897C-0.432234 2.21203 -1.175 4.00522 -1.175 5.875L1.175 5.875C1.175 4.62848 1.67018 3.43302 2.5516 2.5516L0.889897 0.889897ZM-1.175 5.875V41.125H1.175V5.875H-1.175ZM-1.175 41.125C-1.175 42.9948 -0.432234 44.788 0.889897 46.1101L2.5516 44.4484C1.67018 43.567 1.175 42.3715 1.175 41.125H-1.175ZM0.889897 46.1101C2.21203 47.4322 4.00522 48.175 5.875 48.175V45.825C4.62848 45.825 3.43302 45.3298 2.5516 44.4484L0.889897 46.1101ZM5.875 48.175H152.75V45.825H5.875V48.175ZM152.75 48.175C154.62 48.175 156.413 47.4322 157.735 46.1101L156.073 44.4484C155.192 45.3298 153.997 45.825 152.75 45.825V48.175ZM157.735 46.1101C159.057 44.788 159.8 42.9948 159.8 41.125L157.45 41.125C157.45 42.3715 156.955 43.567 156.073 44.4484L157.735 46.1101ZM159.8 41.125V5.875H157.45V41.125H159.8ZM159.8 5.875C159.8 4.00523 159.057 2.21203 157.735 0.889897L156.073 2.5516C156.955 3.43302 157.45 4.62848 157.45 5.875H159.8ZM157.735 0.889897C156.413 -0.432235 154.62 -1.175 152.75 -1.175V1.175C153.997 1.175 155.192 1.67018 156.073 2.5516L157.735 0.889897Z" fill="black" mask="url(#path-2-inside-1)"/>
<path d="M80.0622 25.5562C79.0722 25.5585 78.1052 25.8544 77.2833 26.4063C76.4615 26.9583 75.8217 27.7415 75.445 28.657C75.0683 29.5726 74.9716 30.5792 75.167 31.5497C75.3624 32.5203 75.8412 33.411 76.5429 34.1094C77.2446 34.8078 78.1376 35.2824 79.109 35.4733C80.0804 35.6641 81.0866 35.5627 82.0004 35.1817C82.9141 34.8007 83.6943 34.1573 84.2424 33.3328C84.7905 32.5084 85.0818 31.5399 85.0795 30.55C85.0891 29.8895 84.9656 29.2339 84.7166 28.6222C84.4676 28.0104 84.098 27.4551 83.6298 26.9891C83.1617 26.5232 82.6046 26.1562 81.9917 25.91C81.3788 25.6639 80.7226 25.5435 80.0622 25.5562V25.5562ZM80.0622 33.5815C79.4554 33.6239 78.8499 33.4828 78.3244 33.1765C77.7988 32.8703 77.3776 32.413 77.1153 31.8641C76.8531 31.3153 76.7621 30.7002 76.8541 30.0989C76.9461 29.4977 77.2168 28.9379 77.6311 28.4926C78.0454 28.0472 78.5841 27.7368 79.1772 27.6016C79.7703 27.4665 80.3903 27.5129 80.9566 27.7348C81.523 27.9567 82.0095 28.3438 82.3529 28.8459C82.6963 29.3479 82.8807 29.9417 82.8822 30.55C82.9012 30.9354 82.8427 31.3207 82.7104 31.6832C82.578 32.0456 82.3744 32.3779 82.1116 32.6605C81.8488 32.943 81.532 33.1701 81.1801 33.3282C80.8281 33.4864 80.448 33.5725 80.0622 33.5815ZM69.1112 25.5562C68.1212 25.5585 67.1542 25.8544 66.3323 26.4063C65.5105 26.9583 64.8707 27.7415 64.494 28.657C64.1173 29.5726 64.0206 30.5792 64.216 31.5497C64.4114 32.5203 64.8902 33.411 65.5919 34.1094C66.2936 34.8078 67.1866 35.2824 68.158 35.4733C69.1294 35.6641 70.1356 35.5627 71.0494 35.1817C71.9631 34.8007 72.7433 34.1573 73.2914 33.3328C73.8395 32.5084 74.1308 31.5399 74.1285 30.55C74.138 29.8895 74.0146 29.2339 73.7656 28.6222C73.5166 28.0104 73.147 27.4551 72.6788 26.9891C72.2107 26.5232 71.6536 26.1562 71.0407 25.91C70.4278 25.6639 69.7716 25.5435 69.1112 25.5562V25.5562ZM69.1112 33.5815C68.5044 33.6239 67.8989 33.4828 67.3734 33.1765C66.8478 32.8703 66.4266 32.413 66.1643 31.8641C65.9021 31.3153 65.8111 30.7002 65.9031 30.0989C65.9951 29.4977 66.2658 28.9379 66.6801 28.4926C67.0944 28.0472 67.6331 27.7368 68.2262 27.6016C68.8193 27.4665 69.4393 27.5129 70.0056 27.7348C70.572 27.9567 71.0585 28.3438 71.4019 28.8459C71.7453 29.3479 71.9297 29.9417 71.9312 30.55C71.9502 30.9354 71.8917 31.3207 71.7594 31.6832C71.627 32.0456 71.4234 32.3779 71.1606 32.6605C70.8978 32.943 70.581 33.1701 70.2291 33.3282C69.8771 33.4864 69.497 33.5725 69.1112 33.5815ZM56.0922 27.0955V29.2105H61.1682C61.0886 30.2066 60.6745 31.1466 59.9932 31.8777C59.484 32.3965 58.8716 32.8026 58.1956 33.0698C57.5196 33.3369 56.795 33.4592 56.0687 33.4287C54.5729 33.4287 53.1383 32.8345 52.0806 31.7768C51.0229 30.7191 50.4287 29.2845 50.4287 27.7887C50.4287 26.2929 51.0229 24.8583 52.0806 23.8006C53.1383 22.7429 54.5729 22.1487 56.0687 22.1487C57.5028 22.1274 58.8874 22.672 59.9227 23.6645L61.415 22.1722C60.7147 21.4796 59.8831 20.9336 58.9692 20.5664C58.0552 20.1992 57.0771 20.0181 56.0922 20.0337C55.0476 19.9931 54.0056 20.1637 53.0286 20.5354C52.0515 20.9071 51.1595 21.4722 50.4061 22.1969C49.6527 22.9216 49.0533 23.7909 48.6439 24.7527C48.2345 25.7146 48.0234 26.7492 48.0234 27.7946C48.0234 28.84 48.2345 29.8746 48.6439 30.8364C49.0533 31.7983 49.6527 32.6676 50.4061 33.3923C51.1595 34.1169 52.0515 34.6821 53.0286 35.0538C54.0056 35.4255 55.0476 35.5961 56.0922 35.5555C57.0973 35.5956 58.0996 35.4227 59.0331 35.048C59.9667 34.6734 60.8104 34.1055 61.509 33.3817C62.7429 32.0262 63.4003 30.2435 63.342 28.4115C63.3462 27.9705 63.3108 27.5301 63.2362 27.0955H56.0922ZM109.331 28.7405C109.025 27.8389 108.452 27.0517 107.688 26.4831C106.924 25.9145 106.006 25.5912 105.054 25.5562C104.412 25.555 103.776 25.6855 103.185 25.9399C102.595 26.1942 102.063 26.5669 101.623 27.035C101.182 27.503 100.842 28.0564 100.624 28.661C100.406 29.2656 100.314 29.9085 100.354 30.55C100.344 31.6226 100.682 32.6696 101.316 33.5348C101.95 34.3999 102.847 35.0367 103.873 35.35C104.899 35.6633 105.998 35.6363 107.008 35.2731C108.017 34.9099 108.882 34.2299 109.472 33.3347L107.769 32.1597C107.515 32.583 107.154 32.9326 106.724 33.1738C106.293 33.4149 105.807 33.5393 105.313 33.5345C104.804 33.5555 104.3 33.422 103.868 33.1514C103.436 32.8809 103.096 32.4861 102.892 32.0187L109.578 29.2575L109.331 28.7405ZM102.516 30.409C102.493 30.044 102.542 29.6779 102.661 29.3322C102.781 28.9865 102.968 28.6681 103.212 28.3956C103.456 28.1232 103.752 27.9021 104.082 27.7455C104.413 27.5888 104.771 27.4996 105.137 27.4832C105.515 27.4601 105.892 27.5492 106.22 27.7394C106.549 27.9296 106.813 28.2125 106.981 28.5525L102.516 30.409ZM97.088 35.25H99.2852V20.5625H97.088V35.25ZM93.4925 26.6725H93.4102C93.082 26.2986 92.6769 26.0001 92.2226 25.7973C91.7684 25.5945 91.2757 25.4922 90.7782 25.4975C89.4942 25.5597 88.2833 26.1137 87.3965 27.0444C86.5098 27.9752 86.0152 29.2115 86.0152 30.4971C86.0152 31.7827 86.5098 33.0189 87.3965 33.9497C88.2833 34.8805 89.4942 35.4344 90.7782 35.4967C91.2764 35.5067 91.7706 35.4066 92.2256 35.2034C92.6806 35.0003 93.0851 34.6992 93.4102 34.3217H93.4925V35.0385C93.4925 36.9537 92.4702 37.976 90.8252 37.976C90.2757 37.9639 89.7422 37.7888 89.2924 37.4729C88.8426 37.157 88.4968 36.7145 88.299 36.2017L86.3955 36.989C86.7474 37.8728 87.3593 38.6291 88.1502 39.1578C88.9412 39.6865 89.8739 39.9627 90.8252 39.95C93.3985 39.95 95.5252 38.4342 95.5252 34.7447V25.85H93.4925V26.6725ZM90.9662 33.5815C90.1964 33.5335 89.4738 33.1938 88.9456 32.6317C88.4174 32.0695 88.1234 31.3272 88.1234 30.5558C88.1234 29.7845 88.4174 29.0421 88.9456 28.48C89.4738 27.9179 90.1964 27.5782 90.9662 27.5302C91.3425 27.5464 91.7117 27.6382 92.0518 27.8C92.3919 27.9619 92.6959 28.1904 92.9459 28.4722C93.1958 28.7539 93.3865 29.0831 93.5067 29.44C93.6268 29.797 93.6739 30.1744 93.6452 30.55C93.6773 30.9268 93.6326 31.3062 93.5138 31.6652C93.3951 32.0243 93.2047 32.3555 92.9543 32.6389C92.7039 32.9222 92.3986 33.1519 92.0568 33.3139C91.7151 33.4759 91.3441 33.5669 90.9662 33.5815V33.5815ZM119.624 20.5625H114.36V35.25H116.558V29.6805H119.624C120.251 29.7254 120.879 29.6409 121.472 29.4322C122.064 29.2235 122.606 28.895 123.066 28.4673C123.526 28.0395 123.892 27.5217 124.143 26.946C124.393 26.3704 124.523 25.7493 124.523 25.1215C124.523 24.4936 124.393 23.8725 124.143 23.2969C123.892 22.7212 123.526 22.2034 123.066 21.7757C122.606 21.3479 122.064 21.0194 121.472 20.8107C120.879 20.602 120.251 20.5175 119.624 20.5625V20.5625ZM119.624 27.6125H116.558V22.607H119.671C120.002 22.607 120.329 22.672 120.634 22.7984C120.939 22.9247 121.216 23.1099 121.449 23.3434C121.683 23.5769 121.868 23.8541 121.995 24.1592C122.121 24.4643 122.186 24.7912 122.186 25.1215C122.186 25.4517 122.121 25.7786 121.995 26.0837C121.868 26.3888 121.683 26.666 121.449 26.8995C121.216 27.133 120.939 27.3182 120.634 27.4446C120.329 27.5709 120.002 27.636 119.671 27.636L119.624 27.6125ZM133.184 25.5092C132.384 25.4599 131.587 25.6462 130.891 26.045C130.196 26.4439 129.633 27.0379 129.271 27.7535L131.21 28.5642C131.406 28.211 131.7 27.9221 132.056 27.7323C132.413 27.5426 132.817 27.4602 133.219 27.495C133.498 27.4624 133.781 27.4857 134.051 27.5635C134.32 27.6413 134.572 27.7721 134.791 27.9482C135.01 28.1243 135.191 28.3422 135.325 28.5891C135.458 28.8361 135.541 29.1073 135.569 29.3867V29.5277C134.863 29.1563 134.076 28.9627 133.278 28.9637C131.186 28.9637 129.048 30.1387 129.048 32.2772C129.069 32.7318 129.18 33.1775 129.377 33.588C129.573 33.9985 129.85 34.3653 130.191 34.6667C130.532 34.9681 130.93 35.1979 131.361 35.3425C131.792 35.4871 132.249 35.5436 132.702 35.5085C133.254 35.539 133.803 35.4223 134.295 35.1704C134.786 34.9185 135.202 34.5404 135.499 34.075H135.569V35.25H137.684V29.5982C137.684 27.025 135.734 25.5327 133.231 25.5327L133.184 25.5092ZM132.914 33.558C132.197 33.558 131.198 33.1937 131.198 32.3125C131.198 31.1375 132.444 30.738 133.548 30.738C134.246 30.7207 134.936 30.8912 135.546 31.2315C135.472 31.8696 135.169 32.4593 134.694 32.8914C134.219 33.3235 133.603 33.5687 132.961 33.5815L132.914 33.558ZM145.392 25.85L142.878 32.2185H142.807L140.199 25.85H137.849L141.761 34.7565L139.529 39.7032H141.82L147.836 25.85H145.392ZM125.652 35.25H127.838V20.5625H125.652V35.25Z" fill="black"/>
<path d="M12.2643 8.8596C11.8771 9.3174 11.6796 9.90589 11.7121 10.5046V36.4956C11.6721 37.0953 11.8706 37.6865 12.2643 38.1406L12.3466 38.2346L26.9048 23.6763V23.3238L12.3466 8.77734L12.2643 8.8596Z" fill="url(#paint0_linear)"/>
<path d="M31.7218 28.5289L26.9043 23.6762V23.3237L31.7218 18.4709L31.8275 18.5414L37.5968 21.8079C39.2418 22.7362 39.2418 24.2637 37.5968 25.2037L31.851 28.4702L31.7218 28.5289Z" fill="url(#paint1_linear)"/>
<path d="M31.8666 28.4585L26.9081 23.5L12.2676 38.1405C12.5996 38.436 13.0246 38.6061 13.4688 38.6211C13.9131 38.6361 14.3486 38.4952 14.6998 38.2227L31.8666 28.4585" fill="url(#paint2_linear)"/>
<path d="M31.8666 18.5414L14.6998 8.78885C14.3509 8.51263 13.9157 8.36827 13.4709 8.38117C13.026 8.39406 12.5999 8.56338 12.2676 8.85935L26.9081 23.4999L31.8666 18.5414Z" fill="url(#paint3_linear)"/>
<path opacity="0.2" d="M31.7256 28.3525L14.6998 38.0463C14.3614 38.3017 13.9489 38.4399 13.5248 38.4399C13.1008 38.4399 12.6883 38.3017 12.3498 38.0463V38.0463L12.2676 38.1285L12.3498 38.2225C12.6883 38.478 13.1008 38.6162 13.5248 38.6162C13.9489 38.6162 14.3614 38.478 14.6998 38.2225L31.8666 28.4583L31.7256 28.3525Z" fill="black"/>
<path opacity="0.12" d="M12.2679 37.9758C11.8905 37.5098 11.7055 36.9171 11.7509 36.3191V36.4953C11.7109 37.095 11.9094 37.6863 12.3031 38.1403L12.3854 38.0581L12.2679 37.9758Z" fill="black"/>
<path opacity="0.12" d="M37.5996 25.0275L31.7246 28.3528L31.8304 28.4585L37.5996 25.192C37.9402 25.048 38.2356 24.8148 38.4548 24.5171C38.674 24.2193 38.8088 23.868 38.8451 23.5C38.7716 23.8344 38.6207 24.1468 38.4043 24.4121C38.188 24.6774 37.9123 24.8882 37.5996 25.0275Z" fill="black"/>
<path opacity="0.25" d="M14.6974 8.95355L37.5981 21.9725C37.9109 22.1118 38.1865 22.3226 38.4029 22.5879C38.6192 22.8532 38.7702 23.1657 38.8436 23.5C38.8073 23.1321 38.6725 22.7807 38.4533 22.483C38.2341 22.1852 37.9387 21.952 37.5981 21.808L14.6974 8.78905C13.0641 7.84905 11.7129 8.62455 11.7129 10.5045V10.6808C11.7481 8.8008 13.0641 8.0253 14.6974 8.95355Z" fill="white"/>
<path d="M49.4769 16.7673H48.6191V14.4173H49.3476C49.6754 14.0615 49.9219 13.6387 50.07 13.1781C50.2181 12.7175 50.2643 12.2303 50.2054 11.7501V8.2251H54.9054V14.4056H55.6926V16.7556H54.8231V15.2751H49.4769V16.7673ZM51.1101 11.7501C51.1626 12.694 50.9292 13.6317 50.4404 14.4408H53.9654V9.0946H51.1101V11.7501Z" fill="black" stroke="black" stroke-width="0.235" stroke-miterlimit="10"/>
<path d="M62.7584 14.3586C62.4201 14.6979 62.0181 14.9671 61.5755 15.1508C61.1329 15.3345 60.6585 15.429 60.1793 15.429C59.7001 15.429 59.2257 15.3345 58.7831 15.1508C58.3405 14.9671 57.9385 14.6979 57.6002 14.3586C56.928 13.6566 56.5527 12.7221 56.5527 11.7501C56.5527 10.7782 56.928 9.8437 57.6002 9.14165C57.9385 8.80236 58.3405 8.53317 58.7831 8.3495C59.2257 8.16583 59.7001 8.07129 60.1793 8.07129C60.6585 8.07129 61.1329 8.16583 61.5755 8.3495C62.0181 8.53317 62.4201 8.80236 62.7584 9.14165C63.0979 9.48474 63.3653 9.89227 63.5449 10.3402C63.7244 10.7882 63.8126 11.2676 63.8042 11.7501C63.8181 12.2334 63.7324 12.7144 63.5525 13.1631C63.3726 13.6119 63.1023 14.0188 62.7584 14.3586V14.3586ZM58.2582 13.7711C58.5058 14.0283 58.8035 14.2319 59.1329 14.3693C59.4624 14.5067 59.8165 14.5751 60.1734 14.5701C60.5306 14.5772 60.8854 14.5098 61.2152 14.3723C61.5449 14.2347 61.8424 14.03 62.0887 13.7711C62.5957 13.2202 62.8771 12.4989 62.8771 11.7501C62.8771 11.0014 62.5957 10.2801 62.0887 9.72915C61.8424 9.4703 61.5449 9.26558 61.2152 9.12801C60.8854 8.99045 60.5306 8.92307 60.1734 8.93015C59.8165 8.92519 59.4624 8.99355 59.1329 9.13098C58.8035 9.26842 58.5058 9.47201 58.2582 9.72915C57.7586 10.2838 57.4822 11.0037 57.4822 11.7501C57.4822 12.4966 57.7586 13.2165 58.2582 13.7711Z" fill="black" stroke="black" stroke-width="0.235" stroke-miterlimit="10"/>
<path d="M68.362 15.4278C67.8866 15.4352 67.4146 15.3464 66.9744 15.1667C66.5342 14.987 66.1349 14.7201 65.8005 14.382C65.1226 13.6735 64.7441 12.7307 64.7441 11.75C64.7441 10.7694 65.1226 9.82653 65.8005 9.11801C66.1404 8.77413 66.5473 8.50384 66.9961 8.32394C67.4448 8.14403 67.9258 8.05837 68.409 8.07226C68.9009 8.05834 69.3895 8.15696 69.8375 8.36059C70.2855 8.56422 70.6811 8.86749 70.994 9.24726L70.3713 9.85825C70.1404 9.56147 69.8418 9.32441 69.5003 9.16698C69.1589 9.00954 68.7846 8.93634 68.409 8.95351C68.0474 8.94428 67.6876 9.00939 67.3521 9.1448C67.0166 9.28022 66.7125 9.48305 66.4585 9.74076C65.9524 10.2968 65.6719 11.0216 65.6719 11.7735C65.6719 12.5254 65.9524 13.2502 66.4585 13.8063C66.7125 14.064 67.0166 14.2668 67.3521 14.4022C67.6876 14.5376 68.0474 14.6027 68.409 14.5935C68.8128 14.582 69.2091 14.4825 69.5704 14.3019C69.9317 14.1212 70.2491 13.8639 70.5005 13.5478L71.135 14.1705C70.8132 14.5562 70.4125 14.8687 69.96 15.087C69.4602 15.3205 68.9137 15.4371 68.362 15.4278Z" fill="black" stroke="black" stroke-width="0.235" stroke-miterlimit="10"/>
<path d="M74.8241 15.2751H73.9193V9.0946H71.9453V8.2251H76.7863V9.0946H74.8241V15.2751Z" fill="black" stroke="black" stroke-width="0.235" stroke-miterlimit="10"/>
<path d="M83.0129 8.2251L80.3457 14.1706C80.281 14.409 80.1652 14.6304 80.0065 14.8196C79.8477 15.0088 79.6496 15.1613 79.4261 15.2663C79.2026 15.3714 78.9589 15.4266 78.7119 15.4281C78.4649 15.4296 78.2205 15.3774 77.9957 15.2751L78.2307 14.4408C78.3744 14.5216 78.5358 14.566 78.7007 14.5701C78.8746 14.5788 79.0469 14.5337 79.1942 14.4408C79.3369 14.3221 79.4462 14.1682 79.5114 13.9943L79.7699 13.4303L77.4199 8.2251H78.4892L80.2282 12.2671L81.9437 8.2251H83.0129Z" fill="black" stroke="black" stroke-width="0.235" stroke-miterlimit="10"/>
<path d="M84.0352 15.2751V8.2251H89.1347V15.2751H88.2299V9.0946H84.9399V15.2751H84.0352Z" fill="black" stroke="black" stroke-width="0.235" stroke-miterlimit="10"/>
<path d="M90.7461 15.2751V8.2251H91.6508V11.2448H95.1758V8.2251H96.0923V15.2751H95.1758V12.0908H91.6508V15.2751H90.7461Z" fill="black" stroke="black" stroke-width="0.235" stroke-miterlimit="10"/>
<path d="M103.471 14.3586C103.132 14.6983 102.729 14.9677 102.285 15.1516C101.842 15.3354 101.366 15.43 100.886 15.43C100.406 15.43 99.9308 15.3354 99.4872 15.1516C99.0437 14.9677 98.6407 14.6983 98.3014 14.3586C97.6291 13.6566 97.2539 12.7221 97.2539 11.7501C97.2539 10.7782 97.6291 9.8437 98.3014 9.14165C98.6397 8.80236 99.0417 8.53317 99.4843 8.3495C99.9268 8.16583 100.401 8.07129 100.88 8.07129C101.36 8.07129 101.834 8.16583 102.277 8.3495C102.719 8.53317 103.121 8.80236 103.46 9.14165C104.126 9.84643 104.498 10.7799 104.498 11.7501C104.498 12.7204 104.126 13.6539 103.46 14.3586H103.471ZM98.9711 13.7711C99.2174 14.03 99.5149 14.2347 99.8446 14.3723C100.174 14.5098 100.529 14.5772 100.886 14.5701C101.243 14.5751 101.597 14.5067 101.927 14.3693C102.256 14.2319 102.554 14.0283 102.802 13.7711C103.301 13.2165 103.578 12.4966 103.578 11.7501C103.578 11.0037 103.301 10.2838 102.802 9.72915C102.554 9.47201 102.256 9.26842 101.927 9.13098C101.597 8.99355 101.243 8.92519 100.886 8.93015C100.529 8.92307 100.174 8.99045 99.8446 9.12801C99.5149 9.26558 99.2174 9.4703 98.9711 9.72915C98.4641 10.2801 98.1827 11.0014 98.1827 11.7501C98.1827 12.4989 98.4641 13.2202 98.9711 13.7711V13.7711Z" fill="black" stroke="black" stroke-width="0.235" stroke-miterlimit="10"/>
<path d="M108.205 15.2752V8.2252H110.755C111.283 8.2199 111.795 8.41273 112.188 8.7657C112.385 8.9361 112.541 9.14755 112.647 9.38511C112.752 9.62268 112.804 9.88054 112.799 10.1405C112.802 10.457 112.712 10.7674 112.541 11.0335C112.367 11.2857 112.127 11.485 111.848 11.6092V11.6092C112.187 11.7252 112.485 11.9375 112.705 12.2202C112.921 12.5082 113.037 12.859 113.034 13.219C113.04 13.4898 112.987 13.7587 112.877 14.0065C112.767 14.2542 112.604 14.4748 112.4 14.6525C111.992 15.0319 111.453 15.2384 110.896 15.2282L108.205 15.2752ZM109.11 11.245H110.755C110.909 11.2539 111.063 11.2278 111.205 11.1688C111.348 11.1098 111.475 11.0194 111.577 10.9042C111.777 10.709 111.891 10.4429 111.895 10.164C111.906 9.88415 111.809 9.61076 111.624 9.4002C111.526 9.29063 111.404 9.20429 111.268 9.14741C111.131 9.09052 110.984 9.0645 110.837 9.0712H109.145L109.11 11.245ZM109.11 14.4057H110.943C111.102 14.411 111.26 14.3812 111.407 14.3182C111.553 14.2552 111.683 14.1607 111.789 14.0415C111.992 13.8248 112.105 13.5393 112.106 13.2425C112.099 12.9481 111.982 12.6671 111.777 12.4552C111.664 12.3363 111.527 12.2424 111.375 12.1797C111.223 12.1169 111.06 12.0867 110.896 12.091H109.11V14.4057Z" fill="black" stroke="black" stroke-width="0.235" stroke-miterlimit="10"/>
<defs>
<linearGradient id="paint0_linear" x1="25.6123" y1="10.2343" x2="5.89584" y2="29.9508" gradientUnits="userSpaceOnUse">
<stop stop-color="#00A0FF"/>
<stop offset="0.01" stop-color="#00A1FF"/>
<stop offset="0.26" stop-color="#00BEFF"/>
<stop offset="0.51" stop-color="#00D2FF"/>
<stop offset="0.76" stop-color="#00DFFF"/>
<stop offset="1" stop-color="#00E3FF"/>
</linearGradient>
<linearGradient id="paint1_linear" x1="39.747" y1="23.4999" x2="11.3238" y2="23.4999" gradientUnits="userSpaceOnUse">
<stop stop-color="#FFE000"/>
<stop offset="0.41" stop-color="#FFBD00"/>
<stop offset="0.78" stop-color="#FFA500"/>
<stop offset="1" stop-color="#FF9C00"/>
</linearGradient>
<linearGradient id="paint2_linear" x1="29.1758" y1="26.2025" x2="2.43282" y2="52.9337" gradientUnits="userSpaceOnUse">
<stop stop-color="#FF3A44"/>
<stop offset="1" stop-color="#C31162"/>
</linearGradient>
<linearGradient id="paint3_linear" x1="8.57808" y1="0.211355" x2="20.5161" y2="12.1494" gradientUnits="userSpaceOnUse">
<stop stop-color="#32A071"/>
<stop offset="0.07" stop-color="#2DA771"/>
<stop offset="0.48" stop-color="#15CF74"/>
<stop offset="0.8" stop-color="#06E775"/>
<stop offset="1" stop-color="#00F076"/>
</linearGradient>
</defs>
</svg>
