<svg width="124" height="42" viewBox="0 0 124 42" fill="none" xmlns="http://www.w3.org/2000/svg">
<path d="M0 42C0 42 71.15 24.6 123.85 36.85L124 36.3C124 36.3 78 22.75 0.9 39.25L0 42Z" fill="white"/>
<path d="M34.1004 7.8V10.7C34.3504 10.1 34.7004 9.35 35.6004 8.6C36.5504 7.8 38.0004 7.3 39.3504 7.3C40.0504 7.3 40.7504 7.4 41.4504 7.65C43.6504 8.5 44.3004 10.2 44.5504 10.95C46.2504 7.8 49.0004 7.3 50.4504 7.3C52.2504 7.3 53.8004 7.95 54.8504 9C56.7004 10.8 56.8004 12.8 56.8004 17.75V29.15H51.3504V19.05C51.3504 15.65 51.3004 14.95 50.7004 14C50.1004 13 49.2504 12.8 48.4504 12.8C46.9504 12.8 46.2004 13.85 46.1004 14.05C45.5004 15.1 45.5004 16.85 45.5004 18.6V29.15H40.0004V18.4C40.0004 16.1 40.0004 15.05 39.4504 14.1C39.0504 13.4 38.2004 12.8 37.2004 12.8C36.7004 12.8 36.2504 12.9 35.8004 13.15C34.2004 14.05 34.1504 15.6 34.1504 19.65V29.1H28.6504V7.8H34.1004Z" fill="white"/>
<path d="M78.55 7.8H84.1L78.55 29.15H73.45L70.2 14.75L67 29.15H61.8L56.25 7.8H61.8L64.75 21.15L67.75 7.8H72.6L75.6 21.15L78.55 7.8Z" fill="white"/>
<path fill-rule="evenodd" clip-rule="evenodd" d="M101.25 29.15H95.8996V26.8C95.2496 27.8 93.9996 29.6 90.8496 29.6C86.2496 29.6 82.8496 25.5 82.8496 18.8C82.8496 10.4 87.5996 7.25 91.2496 7.25C93.3496 7.25 95.0496 8.45 95.9996 10.5V7.75H101.25V29.15ZM94.1996 23.45C95.3496 22.05 95.5996 20.2 95.5996 18.25C95.5996 15.5 94.9496 14.05 94.1996 13.3C93.6496 12.65 92.7996 12.25 91.9996 12.25C90.9996 12.25 89.9496 12.85 89.2996 13.8C88.3496 15.15 88.1496 16.85 88.1496 18.5C88.1496 19.8 88.2996 21.1 88.7496 22.15C89.4996 24 90.6996 24.65 91.7996 24.65C92.1496 24.65 93.2496 24.55 94.1996 23.45Z" fill="white"/>
<path d="M113.899 7.8H119.449L113.349 29C112.899 30.5 112.199 32.9 111.099 34.1C110.099 35.15 108.899 35.65 104.449 35.65C103.799 35.65 103.549 35.6 102.999 35.55V30.8H104.449C104.949 30.8 106.199 30.8 106.749 30.25C107.199 29.9 107.549 28.95 107.549 28.1C107.549 27.65 107.349 26.8 107.149 26.3L101.199 7.75H107.149L110.649 22.15L113.899 7.8Z" fill="white"/>
<path fill-rule="evenodd" clip-rule="evenodd" d="M3.80078 29.15L12.9508 0H19.8508L29.4008 29.15H22.6008L20.8508 22.95H12.2508L10.5508 29.15H3.80078ZM19.4008 17.65L16.4508 6.4L13.6508 17.65H19.4008Z" fill="white"/>
</svg>
