<svg width="23" height="23" viewBox="0 0 23 23" fill="none" xmlns="http://www.w3.org/2000/svg">
<path fill-rule="evenodd" clip-rule="evenodd" d="M11.5 21.5161C17.0318 21.5161 21.5161 17.0318 21.5161 11.5C21.5161 5.96824 17.0318 1.48387 11.5 1.48387C5.96824 1.48387 1.48387 5.96824 1.48387 11.5C1.48387 17.0318 5.96824 21.5161 11.5 21.5161ZM11.5 23C17.8513 23 23 17.8513 23 11.5C23 5.14873 17.8513 0 11.5 0C5.14873 0 0 5.14873 0 11.5C0 17.8513 5.14873 23 11.5 23Z" fill="white"/>
<path d="M8.90323 8.59738C8.90323 7.85929 9.71515 7.42274 10.3139 7.83887L14.9291 10.7412C15.4537 11.1058 15.4538 11.8935 14.9291 12.2582L10.314 15.1611C9.71521 15.5773 8.90323 15.1407 8.90323 14.4026L8.90323 8.59738Z" fill="white"/>
</svg>
