<svg width="639" height="419" viewBox="0 0 639 419" fill="none" xmlns="http://www.w3.org/2000/svg">
<path d="M461.166 202.97C448.25 215.12 431.129 220.365 414.434 224.349C397.74 228.333 380.558 231.586 365.752 240.881C342.843 255.223 329.074 281.648 313.293 304.753C307.992 312.522 302.082 320.29 294.04 324.473C279.417 332.042 261.93 325.867 247.856 317.236C233.782 308.604 220.377 297.317 204.475 294.13C163.166 285.964 128.68 334.432 86.7613 335.893C75.2459 336.291 63.7913 332.971 53.1288 328.191C28.9403 317.368 6.64045 296.52 1.27875 268.635C-4.69223 237.562 11.271 206.887 27.9045 180.86C56.1143 136.641 90.2343 93.7502 136.296 74.2965C151.406 67.9226 167.37 64.2709 183.394 61.3495C215.259 55.5067 251.877 53.7141 275.7 77.4835C286.058 87.8411 293.004 102.182 304.702 110.681C323.224 124.159 348.022 119.113 369.104 111.411C390.185 103.709 412.119 93.6175 433.931 98.4643C476.094 107.892 495.043 171.034 461.166 202.97Z" fill="#DBB7F8"/>
<path d="M292.676 148.823C304.282 140.031 318.934 135.012 335.033 135.857C350.417 136.679 365.682 139.952 381.053 139.074C454.533 134.867 493.243 48.5757 567.137 48.1985C578.921 48.1376 591.233 50.9485 599.928 58.8958C646.146 101.169 562.59 157.987 553.588 196.73C551.353 206.328 552.127 217.84 559.793 224.012C580.656 240.923 614.794 250.671 597.636 285.472C577.197 327.014 520.021 340.646 478.108 340.717C433.829 340.789 388.283 328.645 350.072 306.246C318.72 287.871 276.097 253.893 268.035 216.3C262.209 189.495 273.065 163.739 292.676 148.823Z" fill="#90EFF5" fill-opacity="0.3"/>
<path d="M458.247 385.935C458.852 389.997 459.803 393.887 461.272 397.776C461.445 398.208 461.618 398.64 462.05 398.813C459.371 400.023 456.519 401.493 453.667 402.184C452.024 402.616 450.209 402.876 448.654 402.184C448.308 402.011 448.049 401.838 447.962 401.406C447.962 398.554 446.925 396.653 445.369 394.232C449.259 392.763 455.136 388.701 458.247 385.935Z" fill="#FDB790"/>
<path d="M473.025 384.725C473.89 388.7 474.408 392.763 474.408 396.825C474.408 397.257 474.408 397.776 474.063 398.035C477.001 398.208 480.113 398.554 483.138 398.208C484.866 398.035 486.595 397.689 487.892 396.479C488.151 396.22 488.324 395.874 488.237 395.529C487.287 392.849 487.546 390.688 488.064 387.923C483.829 387.923 476.828 386.194 473.025 384.725Z" fill="#FDB790"/>
<path d="M457.813 15.1443H123.151C117.1 15.1443 112.174 20.0709 112.174 26.1211V265.709C112.174 271.759 117.1 276.685 123.151 276.685H253.316V337.792H321.338V276.685H457.813C463.863 276.685 468.789 271.759 468.789 265.709V26.1211C468.789 20.0709 463.863 15.1443 457.813 15.1443Z" fill="#00305E"/>
<path d="M452.109 261.733H128.856C123.152 261.733 118.484 257.066 118.484 251.361V31.3071C118.484 25.6026 123.152 20.9353 128.856 20.9353H452.109C457.814 20.9353 462.481 25.6026 462.481 31.3071V251.448C462.481 257.066 457.814 261.733 452.109 261.733Z" fill="white"/>
<path d="M128.683 168.992C130.844 171.239 133.783 172.709 136.808 172.622C140.092 172.536 143.117 170.548 145.019 167.696C146.92 164.93 147.784 161.473 147.784 158.015C147.784 156.719 147.698 155.336 147.266 154.126C146.488 152.138 144.932 150.755 143.29 149.545C138.709 146.261 129.375 144.446 125.831 150.323C122.547 155.682 124.707 164.93 128.683 168.992Z" fill="#2B499E"/>
<path d="M97.7431 330.36C94.2858 334.854 94.4587 337.361 97.5702 342.114C98.4345 343.411 99.4717 344.534 100.855 345.399C105.954 348.51 109.671 344.275 114.77 341.077C129.118 332.002 143.206 319.988 150.725 304.862C158.245 289.737 162.48 273.056 164.9 256.288C166.197 247.04 166.802 236.755 160.406 229.494C154.528 222.753 144.416 221.197 136.724 225.605C126.352 231.569 123.845 245.311 123.5 257.325C122.981 272.537 126.093 284.638 128.599 299.59C123.5 303.566 101.2 325.692 97.7431 330.36Z" fill="#79A2D3"/>
<path d="M350.641 344.188H223.932C222.204 344.188 220.734 342.805 220.734 340.99C220.734 339.262 222.204 337.792 223.932 337.792H350.727C352.456 337.792 353.925 339.175 353.925 340.99C353.839 342.719 352.369 344.188 350.641 344.188Z" fill="#2B499E"/>
<path d="M181.751 230.877C187.715 256.547 175.874 291.552 172.071 304.257C161.007 341.336 148.043 372.278 147.438 373.661C146.573 375.563 145.018 377.291 142.943 377.724C139.227 378.501 133.522 375.476 132.399 371.76C131.621 369.426 132.139 366.401 132.312 363.981C133.004 355.251 134.732 346.522 136.461 337.879C138.017 329.927 139.745 321.975 141.56 314.024C142.252 310.999 142.943 307.974 143.721 304.948C143.98 303.738 145.363 300.713 145.018 299.503C121.163 218.69 159.797 222.061 165.156 221.802C170.515 221.542 175.96 223.876 179.331 228.111C180.368 229.407 181.405 229.407 181.751 230.877Z" fill="#A3C2EF"/>
<path d="M131.621 383.687C136.634 383.255 141.561 387.058 142.511 391.985C142.857 387.577 143.116 383.082 144.413 378.847C144.845 377.291 145.45 375.649 145.537 374.007C145.537 370.463 142.425 367.093 138.881 367.006C135.251 366.833 134.3 369.167 134.3 372.106C134.128 376.254 133.609 380.057 131.621 383.687Z" fill="#FDB790"/>
<path d="M125.226 387.75C125.572 387.145 126.004 386.626 126.35 386.108C127.56 384.206 128.856 382.391 130.239 380.576C130.844 379.798 131.449 379.02 132.227 378.415C133.523 377.465 135.338 377.119 136.894 377.637C138.45 378.07 139.746 379.366 140.351 380.835C140.784 381.959 140.87 383.255 141.129 384.552C141.734 387.836 143.636 389.997 146.056 392.244C147.525 393.627 147.093 396.566 147.18 398.554C147.266 402.616 147.352 408.493 152.193 409.876C155.563 410.827 146.056 414.716 147.525 417.914H137.759C132.573 413.161 134.128 404.69 131.103 399.332C129.375 396.307 126.09 394.405 124.707 391.207C124.016 389.911 124.535 388.787 125.226 387.75Z" fill="#7774F7"/>
<path d="M143.981 405.987C144.413 406.506 144.846 407.111 145.364 407.543C147.179 409.099 149.599 409.444 152.019 409.444C154.18 409.444 155.995 411.346 155.736 413.42C155.736 413.593 155.649 413.679 155.649 413.852C155.217 415.494 153.921 416.791 152.365 417.396C150.809 418.001 148.994 417.915 147.439 417.396C143.549 416.186 143.376 410.049 143.981 405.987Z" fill="#7774F7"/>
<path d="M139.834 406.678C138.364 402.443 138.969 397.776 137.673 393.541C135.944 388.009 127.042 383.601 124.535 389.133C124.362 389.824 124.449 390.602 124.708 391.207C126.091 394.405 129.375 396.306 131.104 399.331C134.216 404.777 131.795 412.815 137.068 417.914H151.07C150.897 417.741 143.723 417.914 139.834 406.678Z" fill="#B4B3FF"/>
<path d="M235.941 55.4601L151.688 64.1421L160.742 152.007L244.995 143.325L235.941 55.4601Z" fill="#D93F58"/>
<path d="M437.576 58.3779H264.643V146.155H437.576V58.3779Z" fill="#4CB3EF"/>
<path d="M207.248 130.271C210.532 128.715 213.989 127.765 216.064 127.592C219.002 127.332 222.633 128.456 224.534 130.876C227.213 134.333 224.534 138.136 221.768 140.47C218.397 143.322 214.681 145.742 210.705 147.557C204.05 150.582 197.654 145.397 198.778 137.963C199.21 134.938 203.099 132.173 207.248 130.271Z" fill="#FDB790"/>
<path d="M418.745 177.634H182.873C179.243 177.634 176.305 174.695 176.305 171.065C176.305 167.435 179.243 164.496 182.873 164.496H418.745C422.375 164.496 425.313 167.435 425.313 171.065C425.313 174.695 422.375 177.634 418.745 177.634Z" fill="#CCE3FF"/>
<path d="M418.745 204.082H182.873C179.243 204.082 176.305 201.143 176.305 197.513C176.305 193.883 179.243 190.944 182.873 190.944H418.745C422.375 190.944 425.313 193.883 425.313 197.513C425.313 201.143 422.375 204.082 418.745 204.082Z" fill="#CCE3FF"/>
<path d="M418.745 230.53H182.873C179.243 230.53 176.305 227.591 176.305 223.961C176.305 220.331 179.243 217.392 182.873 217.392H418.745C422.375 217.392 425.313 220.331 425.313 223.961C425.313 227.591 422.375 230.53 418.745 230.53Z" fill="#CCE3FF"/>
<path d="M234.822 118.344C236.81 117.739 238.798 117.479 239.835 119.294C240.786 121.023 240.181 121.801 239.057 123.53C235.946 128.197 232.056 132.518 227.303 135.544C224.191 137.531 218.832 139.347 215.98 135.63C209.152 126.209 227.043 120.591 234.822 118.344Z" fill="#FDB790"/>
<path d="M189.963 178.759C188.926 181.698 187.198 184.291 186.074 187.229C182.53 195.786 181.579 205.121 181.579 214.282C181.579 219.209 184.518 237.619 183.308 240.817C182.53 237.965 177.863 229.754 170.862 233.384C144.933 254.387 124.967 238.051 126.955 233.902C128.165 231.396 132.486 227.074 133.697 224.568C138.277 215.579 141.562 205.899 138.969 195.873C136.203 185.414 133.351 174.956 130.671 164.412C124.189 138.655 158.502 145.051 162.651 145.483C166.886 145.915 194.631 165.103 189.963 178.759Z" fill="#2B499E"/>
<path d="M163.341 146.088C161.699 141.939 160.834 137.445 160.921 132.95C157.204 133.382 152.969 133.815 149.166 134.074C149.166 135.197 149.252 136.321 149.425 137.445C149.512 138.309 149.685 139.26 150.117 140.038C150.462 140.729 151.068 141.334 151.586 141.939C153.055 143.408 154.525 144.964 156.513 145.656C157.463 146.001 158.414 146.088 159.365 146.088C160.921 146.261 161.871 146.866 163.341 146.088Z" fill="#F4976E"/>
<path d="M210.968 148.422C204.399 157.929 192.818 162.423 181.927 166.313C179.248 167.264 176.482 168.301 173.543 168.474C170.605 168.646 167.58 167.955 165.505 165.967C160.838 161.559 159.887 153.694 164.295 149.027C166.197 146.952 168.963 145.829 171.642 144.878C178.211 142.371 184.78 139.778 191.348 137.272C194.114 136.235 196.966 135.111 199.905 134.852C202.844 134.593 206.042 135.284 208.202 137.358C210.795 139.865 210.623 144.791 210.968 148.422Z" fill="#20306D"/>
<path d="M162.477 98.8095C164.724 99.501 165.934 101.835 166.799 103.995C169.651 110.737 171.639 118.084 170.342 125.344C170.083 126.9 169.651 128.455 168.873 129.752C167.058 132.604 163.687 133.901 160.489 134.851C157.032 135.889 153.229 136.666 149.945 135.197C148.216 134.419 146.833 133.123 145.709 131.74C140.869 125.863 139.314 117.565 141.647 110.391C142.684 107.193 144.499 104.168 147.265 102.353C148.648 101.489 149.426 100.279 150.895 99.6738C152.624 98.8959 154.525 98.5502 156.427 98.2909C157.983 97.9452 161.008 98.3774 162.477 98.8095Z" fill="#FDB790"/>
<path d="M165.589 96.3897C164.811 95.0068 163.342 94.1425 161.959 93.451C153.316 89.4752 142.166 90.9445 135.424 97.7726C128.683 104.514 128.337 119.467 134.301 126.986C139.227 133.209 140.956 135.802 151.155 136.667C153.575 132.345 155.303 123.27 154.093 119.294C154.526 118.689 155.131 118.257 155.822 118.17C157.119 117.911 158.761 118.516 159.625 117.565C160.057 117.047 160.144 116.355 160.144 115.664C160.23 113.849 160.144 112.034 160.489 110.219C161.613 108.749 162.65 107.28 163.601 105.724C165.07 102.699 167.145 99.3283 165.589 96.3897Z" fill="#8A3622"/>
<path d="M134.731 120.072C136.028 120.072 137.238 120.504 138.361 121.109C141.473 122.751 144.066 125.69 144.757 129.147C144.93 130.184 144.93 131.308 144.238 132.086C143.72 132.604 143.028 132.691 142.337 132.777C139.485 133.036 136.633 131.999 134.558 130.098C134.126 129.666 133.694 129.147 133.262 128.715C130.582 125.69 128.767 120.158 134.731 120.072Z" fill="#4CB3EF"/>
<path d="M142.858 133.123C142.685 130.963 142.167 128.802 141.043 126.987C135.079 117.047 118.744 126.122 112.867 131.827C107.508 137.013 104.396 144.792 105.866 152.138C106.471 155.336 108.026 158.448 110.619 160.436C116.065 164.671 123.671 163.547 130.153 164.325C134.993 164.93 140.611 167.35 142.772 172.104C144.933 176.685 143.031 184.982 136.895 185.155C138.018 185.155 140.611 187.143 141.994 187.489C143.982 187.921 146.056 188.007 148.044 187.661C152.711 186.97 156.947 184.55 160.404 181.438C168.442 174.178 173.196 161.646 169.566 151.015C165.935 140.211 153.316 134.679 142.858 133.123Z" fill="#8A3622"/>
<path d="M239.575 123.702C241.736 121.973 243.983 120.072 244.502 117.479C244.761 116.442 244.675 115.318 244.934 114.281C245.193 113.33 245.798 112.466 245.971 111.515C246.403 109.095 244.415 106.934 243.983 104.514C243.551 102.354 244.242 99.5877 242.514 98.2048C241.736 98.032 241.131 98.7234 240.785 99.4149C239.057 102.959 239.402 107.021 238.711 110.737C238.365 112.812 237.587 114.454 236.637 116.269C235.772 117.998 235.686 119.467 235.081 121.282C234.476 123.356 232.401 124.826 232.229 126.986C232.229 127.419 232.229 127.851 232.488 128.11C232.92 128.542 233.698 128.456 234.216 128.11C236.291 126.9 237.76 125.085 239.575 123.702Z" fill="#FDB790"/>
<path d="M235.166 106.848C235.339 107.712 235.771 108.49 235.944 109.268C236.636 111.861 235.685 114.627 235.253 117.306C235.253 117.565 235.166 117.825 235.253 117.998C235.512 118.516 236.29 118.343 236.809 117.998C237.759 117.306 238.278 116.269 238.537 115.145C238.797 114.022 238.797 112.898 238.797 111.775C238.797 110.478 238.71 109.095 238.278 107.885C238.105 107.194 237.846 106.502 237.587 105.811C236.636 103.218 234.734 104.428 235.166 106.848Z" fill="#FDB790"/>
<path d="M394.892 133.383C411.838 133.383 425.575 119.645 425.575 102.699C425.575 85.7537 411.838 72.0164 394.892 72.0164C377.946 72.0164 364.209 85.7537 364.209 102.699C364.209 119.645 377.946 133.383 394.892 133.383Z" fill="#CCE3FF"/>
<path d="M490.742 225.691C493.854 236.063 496.015 244.015 495.15 255.769C494.545 263.548 480.976 301.232 491.52 378.156C492.125 382.478 492.125 386.972 490.397 390.948C483.569 393.8 475.271 393.368 468.875 389.738C468.53 385.243 468.702 380.23 469.826 375.822C466.369 358.968 442.341 296.219 466.455 228.457C466.801 226.901 467.32 225.173 468.702 224.308C469.653 223.703 470.777 223.617 471.814 223.617C478.037 223.271 484.519 226.037 490.742 225.691Z" fill="#20306D"/>
<path d="M478.124 225.518C480.631 260.004 465.938 287.057 445.108 325.433C450.726 343.497 461.27 384.897 460.752 387.317C459.974 388.009 459.196 388.7 458.332 389.305C453.405 393.108 447.528 395.701 441.305 395.961C432.316 373.229 420.043 349.288 417.709 326.297C419.092 303.738 438.539 232.519 439.663 222.147L478.124 225.518Z" fill="#2B499E"/>
<path d="M449.083 87.4008C447.181 89.9938 445.971 93.1917 446.317 96.3897C446.403 97.4269 446.749 98.5505 446.749 99.5877C446.749 100.798 446.403 102.008 446.058 103.218C444.848 107.885 444.243 112.898 446.231 117.306C446.663 118.17 447.095 119.035 447.873 119.64C449.256 120.85 451.244 121.023 453.059 120.85C461.961 120.158 469.567 112.985 472.506 104.601C474.407 99.0691 474.58 92.6732 471.641 87.4873C469.308 83.2521 464.813 80.3135 459.973 80.0542C455.392 79.7085 451.589 83.8572 449.083 87.4008Z" fill="#FDB790"/>
<path d="M458.851 123.27C459.802 122.665 461.012 122.492 462.135 122.319C467.235 121.541 472.939 125.085 478.125 125.431C477.434 120.072 476.742 110.996 477.088 105.551C474.236 102.353 470.519 99.8468 466.37 98.6368C463.518 97.7725 460.147 97.5132 457.727 99.1554C458.764 103.909 456.949 107.194 454.529 107.971L458.851 123.27Z" fill="#F4976E"/>
<path d="M490.226 221.715L530.675 223.444C534.911 223.617 538.454 220.159 538.454 215.924L538.022 179.623C537.936 175.561 534.651 172.19 530.503 172.277L483.225 172.622L490.226 221.715Z" fill="#4CB3EF"/>
<path d="M458.418 220.591L416.499 219.727C412.091 219.64 408.633 216.01 408.893 211.689L411.313 175.474C411.572 171.412 415.202 168.3 419.437 168.56L468.271 171.93L458.418 220.591Z" fill="#77CAFB"/>
<path d="M457.985 402.616C460.146 402.702 466.887 402.097 468.53 400.801C470.172 399.504 471.382 397.516 471.468 395.355C478.383 396.047 480.803 396.22 487.804 395.788C491.175 400.196 491.78 406.332 490.137 411.605L474.234 412.555C474.061 411.605 472.333 411.259 471.382 411.259C470.431 411.259 469.394 411.691 468.443 411.95C466.369 412.555 464.208 412.469 462.047 412.469C460.578 412.469 459.022 412.382 457.899 411.518C456.689 410.567 456.256 408.925 456.17 407.456C456.17 406.073 457.38 403.826 457.985 402.616Z" fill="#A1ABCE"/>
<path d="M478.643 112.12C478.903 105.638 482.36 99.674 483.57 93.278C484.002 91.1173 484.089 88.7836 483.051 86.8821C482.014 84.9806 479.594 83.5977 477.606 84.462C478.038 82.2148 477.001 79.7948 475.359 78.239C473.717 76.6832 471.47 75.7325 469.222 75.2139C464.901 74.1767 460.32 74.2632 456.085 75.4732C454.529 75.9053 452.973 76.5104 451.936 77.7204C450.467 79.2762 450.035 81.5234 450.467 83.5977C450.899 85.6721 452.282 87.4007 453.924 88.6972C450.121 91.0308 448.306 96.1303 449.948 100.279C450.035 98.3775 452.541 97.2539 454.27 98.0318C455.998 98.8096 456.863 100.884 456.69 102.785C456.517 104.687 455.566 106.416 454.443 107.971C461.616 112.812 470.346 114.108 478.643 112.12Z" fill="#34325F"/>
<path d="M428.513 417.569C427.821 413.679 430.241 409.531 433.871 408.148C435.081 407.716 436.464 407.543 437.761 407.37C439.144 407.197 444.157 407.802 445.54 407.716C446.404 405.209 447.009 402.789 447.095 400.196C450.12 402.011 451.935 402.443 455.306 401.493C458.677 400.542 460.838 398.727 461.961 396.047C465.851 400.11 469.395 405.814 470 411.432C470.172 412.383 458.158 418.174 454.788 417.396C453.75 415.494 453.75 415.667 453.491 415.235C451.503 416.186 446.922 417.828 445.626 418.174L428.513 417.569Z" fill="#C7CEE6"/>
<path d="M514.081 213.418C522.434 213.418 529.206 206.646 529.206 198.292C529.206 189.939 522.434 183.167 514.081 183.167C505.727 183.167 498.955 189.939 498.955 198.292C498.955 206.646 505.727 213.418 514.081 213.418Z" fill="#A3C2EF"/>
<path d="M496.794 174.783C497.745 171.499 498.695 168.215 499.56 164.844C500.856 160.177 502.239 155.423 502.239 150.496C502.239 145.743 500.856 140.816 497.572 137.445C495.497 136.062 493.596 135.371 492.299 134.679C488.842 132.864 485.644 130.79 482.446 128.629C481.495 125.258 478.903 122.493 475.618 121.283C473.285 120.418 470.692 120.418 468.272 120.591C465.246 120.764 462.135 121.283 459.369 122.579C456.603 123.875 454.442 125.345 453.146 128.197L438.28 129.493C432.835 130.617 429.637 138.569 429.637 144.187C429.637 149.805 431.02 155.164 432.835 160.436C439.576 180.315 438.453 202.096 438.798 223.099C442.342 227.679 478.125 235.199 490.744 225.605C490.311 220.246 490.917 189.909 496.794 174.783Z" fill="#C8DDFC"/>
<path d="M382.361 110.91C382.274 108.576 382.447 106.502 382.62 104.081C382.793 101.661 382.879 99.2413 381.929 97.0805C381.583 96.3027 381.497 92.5861 379.941 93.969C379.509 94.3147 379.422 94.8333 379.336 95.3519C379.336 95.8705 379.422 96.3891 379.509 96.9077C379.681 98.0313 379.595 99.2413 379.422 100.365C379.336 100.797 379.163 101.316 378.904 101.575C377.607 103.044 376.397 100.019 375.879 99.1549C374.496 96.9077 373.286 94.4876 372.076 92.154C371.816 91.6354 371.557 91.1168 371.211 90.6846C370.865 90.2525 370.693 89.8203 370.088 89.8203C369.655 89.8203 369.31 90.2525 369.31 90.7711C369.31 91.2897 369.483 91.6354 369.655 92.0675C370.088 93.1047 370.606 94.2283 371.038 95.2655C371.211 95.6112 371.384 95.9569 371.557 96.3027C371.903 96.9077 372.335 97.3398 372.594 98.0313C372.594 98.1177 372.681 98.2906 372.594 98.2906C371.989 97.9449 371.643 97.3398 371.298 96.7348C370.433 95.3519 369.655 93.7962 368.964 92.3268C368.791 91.8947 368.532 91.4625 368.186 91.1168C367.84 90.7711 367.668 90.6846 367.408 91.0304C366.89 91.2032 366.89 91.8947 366.976 92.4997C367.063 93.364 367.149 94.3147 367.495 95.1791C367.668 95.6112 367.84 95.9569 368.013 96.3891C368.791 97.8584 369.742 99.1549 370.433 100.624C368.964 98.982 367.581 97.167 366.457 95.2655C366.112 94.574 365.68 93.8826 364.902 93.7097C364.815 93.7097 364.729 93.6233 364.642 93.7097C364.47 93.7962 364.47 93.969 364.47 94.1419C364.383 95.4383 364.988 96.6484 365.593 97.772C366.371 99.1549 367.149 100.797 367.84 102.18C366.89 100.711 365.68 99.4142 364.297 98.377C363.778 98.0313 363.519 97.5991 362.914 97.772C362.827 98.4634 363.173 99.0685 363.519 99.6735C366.89 105.205 370.347 110.823 375.273 114.972L384.003 138.654C386.51 138.654 388.67 137.444 390.918 136.32C393.165 135.197 395.239 133.641 396.708 131.567C395.758 130.27 394.807 128.887 393.77 127.591C391.523 124.825 382.361 111.169 382.361 110.91Z" fill="#FDB790"/>
<path d="M497.571 137.445C500.855 140.815 502.238 145.742 502.238 150.496C502.238 155.336 500.855 160.09 499.559 164.843C498.608 168.128 497.657 171.412 496.793 174.783C497.139 174.005 497.398 173.227 497.744 172.536L512.178 172.449C509.758 148.854 502.93 140.988 497.571 137.445Z" fill="#B8CCEB"/>
<path d="M395.497 128.283C397.744 130.79 399.818 133.469 401.634 136.235C403.362 138.828 404.832 141.593 405.35 144.619C405.869 147.644 405.264 151.014 403.103 153.262C401.374 155.077 398.781 155.941 396.361 155.682C393.941 155.422 391.608 154.126 390.052 152.225C388.842 150.669 388.064 148.854 387.286 147.039C385.644 142.976 384.002 139.001 382.359 134.938C385.298 132.691 388.41 130.703 391.78 129.147C392.818 128.542 394.287 128.024 395.497 128.283Z" fill="#ACC0DC"/>
<path d="M398.782 138.568C402.498 136.84 432.058 130.703 435.083 130.012C438.195 129.32 441.565 129.147 444.418 130.617C458.506 137.618 453.666 159.571 434.997 159.744C422.983 159.83 407.511 157.756 395.67 155.595C389.707 154.472 387.805 143.754 398.782 138.568Z" fill="#B8CCEB"/>
<path d="M94.8019 337.014C96.7898 335.026 98.9506 332.606 101.716 332.779C104.914 332.952 106.816 336.582 107.075 339.78C107.248 341.163 107.162 342.719 106.384 343.842C105.952 344.534 105.26 344.966 104.655 345.485C99.2099 349.806 94.4562 355.079 90.6532 360.956C89.616 362.512 88.3195 364.327 86.4181 364.327C85.8995 358.363 85.5537 352.313 85.7266 346.349C85.813 343.497 86.4181 343.41 88.7517 341.855C90.9125 340.472 92.9868 338.829 94.8019 337.014Z" fill="#FDB790"/>
<path d="M96.7903 344.707C96.0989 341.682 93.5059 338.225 90.0487 339.521C89.0979 339.867 84.6035 341.077 83.1342 342.201C82.097 342.633 81.1463 343.238 80.1955 343.756C78.4669 344.794 76.5654 346.09 75.9604 348.078C74.4911 353.35 78.6398 359.141 78.0347 364.5C77.2569 371.069 71.8117 375.909 72.9353 382.91C73.5403 386.886 78.4669 393.973 84.8628 387.75C89.2708 383.515 86.8507 362.08 96.3582 353.869C97.5682 352.832 95.926 352.227 96.2717 350.671C96.7903 348.856 97.0496 346.954 96.7039 345.053C96.7903 344.88 96.7903 344.794 96.7903 344.707Z" fill="#7774F7"/>
<path d="M84.4304 344.793C83.0475 343.843 77.4295 342.373 75.9602 348.078C75.4416 350.152 75.2687 355.252 74.5773 360.351C73.5401 368.13 70.6014 372.797 72.9351 382.91C73.3672 384.811 74.2315 386.713 75.528 388.095C85.6405 397.43 84.8626 374.266 83.9118 364.845C86.3319 354.906 89.6163 348.51 84.4304 344.793Z" fill="#B4B3FF"/>
</svg>
