<svg width="411" height="411" viewBox="0 0 411 411" fill="none" xmlns="http://www.w3.org/2000/svg">
<circle cx="205.5" cy="205.5" r="205.5" fill="#C4C4C4"/>
<circle cx="205.5" cy="205.5" r="205.5" fill="url(#paint0_radial)"/>
<path d="M247.578 246.18V255.615C247.578 263.399 241.257 269.767 233.532 269.767H150.191H146.913L144.572 271.654L114.139 295.241V279.202V269.767H104.775H95.4104C87.685 269.767 81.3642 263.399 81.3642 255.615V156.55C81.3642 148.766 87.685 142.398 95.4104 142.398H149.254V132.963H95.4104C82.5347 132.963 72 143.577 72 156.55V255.615C72 268.588 82.5347 279.202 95.4104 279.202H104.775V314.583L150.191 279.202H233.532C246.407 279.202 256.942 268.588 256.942 255.615V246.18H247.578Z" fill="white"/>
<path d="M316.59 105.852C324.315 105.852 330.636 112.221 330.636 120.004V219.07C330.636 226.854 324.315 233.222 316.59 233.222H307.225H297.861V242.657V258.932L267.428 235.345L265.087 233.222H261.809H178.468C170.743 233.222 164.422 226.854 164.422 219.07V120.004C164.422 112.221 170.743 105.852 178.468 105.852H316.59ZM316.59 96.4175H178.468C165.593 96.4175 155.058 107.032 155.058 120.004V219.07C155.058 232.043 165.593 242.657 178.468 242.657H261.809L307.225 278.037V242.657H316.59C329.465 242.657 340 232.043 340 219.07V120.004C340 107.032 329.465 96.4175 316.59 96.4175Z" fill="white"/>
<defs>
<radialGradient id="paint0_radial" cx="0" cy="0" r="1" gradientUnits="userSpaceOnUse" gradientTransform="rotate(45) scale(581.242 3565.06)">
<stop stop-color="#89A750"/>
<stop offset="1" stop-color="#AACC52"/>
</radialGradient>
</defs>
</svg>
